<?xml version="1.0" standalone="no"?>
<!DOCTYPE svg PUBLIC "-//W3C//DTD SVG 20010904//EN"
 "http://www.w3.org/TR/2001/REC-SVG-20010904/DTD/svg10.dtd">
<svg version="1.0" xmlns="http://www.w3.org/2000/svg"
 width="957.000000pt" height="1280.000000pt" viewBox="0 0 957.000000 1280.000000"
 preserveAspectRatio="xMidYMid meet">
<metadata>
Created by potrace 1.15, written by Peter Selinger 2001-2017
</metadata>
<g transform="translate(0.000000,1280.000000) scale(0.100000,-0.100000)"
fill="#000000" stroke="none">
<path d="M4531 12789 c-366 -43 -754 -246 -988 -517 -278 -324 -423 -762 -384
-1162 54 -550 367 -1012 853 -1259 64 -32 164 -74 222 -92 l106 -34 0 -135 0
-136 -117 -13 c-65 -7 -201 -28 -303 -46 -1287 -233 -2420 -980 -3139 -2068
-290 -438 -506 -929 -636 -1441 -242 -961 -178 -1944 188 -2881 149 -382 362
-758 627 -1110 477 -633 1145 -1161 1870 -1480 800 -352 1671 -483 2525 -379
1091 132 2082 615 2842 1385 179 182 279 297 413 474 459 608 749 1271 885
2020 213 1174 -42 2409 -706 3412 -321 486 -759 940 -1214 1257 -38 27 -71 50
-73 52 -3 2 164 304 173 312 2 2 42 -18 90 -44 48 -26 90 -43 94 -38 5 5 124
216 265 468 153 272 253 463 248 468 -11 11 -803 448 -811 448 -8 0 -523 -923
-522 -935 0 -8 143 -96 175 -108 8 -3 -150 -297 -159 -297 -2 0 -75 35 -163
78 -522 257 -1151 429 -1715 470 -54 4 -97 10 -97 15 0 4 0 62 0 130 l0 122
118 38 c571 184 983 685 1063 1292 16 124 6 373 -21 497 -61 288 -203 557
-403 764 -342 355 -822 529 -1306 473z m364 -213 c286 -44 542 -169 749 -365
179 -170 326 -443 383 -711 25 -119 25 -401 0 -520 -54 -253 -180 -496 -351
-679 -90 -95 -242 -204 -384 -275 -56 -29 -182 -76 -201 -76 -8 0 -11 43 -11
140 l0 140 150 0 150 0 0 630 0 630 -675 0 -675 0 0 -630 0 -630 155 0 155 0
0 -141 0 -141 -27 7 c-49 11 -216 86 -278 123 -336 201 -570 541 -641 932 -23
125 -23 334 -1 457 106 583 549 1017 1130 1108 111 17 263 18 372 1z"/>
</g>
</svg>
